<?xml version="1.0" encoding="UTF-8" standalone="no"?>
<!-- Created with Inkscape (http://www.inkscape.org/) -->

<svg
   xmlns:dc="http://purl.org/dc/elements/1.1/"
   xmlns:cc="http://creativecommons.org/ns#"
   xmlns:rdf="http://www.w3.org/1999/02/22-rdf-syntax-ns#"
   xmlns:svg="http://www.w3.org/2000/svg"
   xmlns="http://www.w3.org/2000/svg"
   xmlns:sodipodi="http://sodipodi.sourceforge.net/DTD/sodipodi-0.dtd"
   xmlns:inkscape="http://www.inkscape.org/namespaces/inkscape"
   id="svg2"
   version="1.1"
   inkscape:version="0.48.3.1 r9886"
   width="16"
   height="16"
   xml:space="preserve"
   sodipodi:docname="favicon.svg"><metadata
     id="metadata8"><rdf:RDF><cc:Work
         rdf:about=""><dc:format>image/svg+xml</dc:format><dc:type
           rdf:resource="http://purl.org/dc/dcmitype/StillImage" /><dc:title></dc:title></cc:Work></rdf:RDF></metadata><defs
     id="defs6"><clipPath
       clipPathUnits="userSpaceOnUse"
       id="clipPath18"><path
         d="m 0,0 1541,0 0,566.93 -1541,0 L 0,0 z"
         id="path20"
         inkscape:connector-curvature="0" /></clipPath></defs><sodipodi:namedview
     pagecolor="#ffffff"
     bordercolor="#666666"
     borderopacity="1"
     objecttolerance="10"
     gridtolerance="10"
     guidetolerance="10"
     inkscape:pageopacity="0"
     inkscape:pageshadow="2"
     inkscape:window-width="1432"
     inkscape:window-height="816"
     id="namedview4"
     showgrid="false"
     inkscape:zoom="32.605853"
     inkscape:cx="5.3241319"
     inkscape:cy="6.268889"
     inkscape:window-x="0"
     inkscape:window-y="0"
     inkscape:window-maximized="1"
     inkscape:current-layer="g10" /><g
     id="g10"
     inkscape:groupmode="layer"
     inkscape:label="ink_ext_XXXXXX"
     transform="matrix(1.25,0,0,-1.25,0,15.999997)"><g
       id="g3249"
       transform="matrix(0.23062315,0,0,0.24838683,-24.722018,-0.79371471)"><path
         d="m 124.034,33.3707 c 0,-2.284 -1.851,-4.1344 -4.137,-4.1344 -2.283,0 -4.132,1.8504 -4.132,4.1344 0,2.2836 1.849,4.1344 4.132,4.1344 2.286,0 4.137,-1.8508 4.137,-4.1344"
         style="fill:#918f90;fill-opacity:1;fill-rule:nonzero;stroke:none"
         id="path104"
         inkscape:connector-curvature="0" /><path
         d="m 154.13,29.0598 c 0,-2.2856 -1.85,-4.1352 -4.137,-4.1352 -2.281,0 -4.131,1.8496 -4.131,4.1352 0,2.2824 1.85,4.134 4.131,4.134 2.287,0 4.137,-1.8516 4.137,-4.134"
         style="fill:#176fc1;fill-opacity:1;fill-rule:nonzero;stroke:none"
         id="path106"
         inkscape:connector-curvature="0" /><path
         d="m 124.034,48.8781 c 0,-2.284 -1.851,-4.1343 -4.137,-4.1343 -2.283,0 -4.132,1.8503 -4.132,4.1343 0,2.2836 1.849,4.134 4.132,4.134 2.286,0 4.137,-1.8504 4.137,-4.134"
         style="fill:#918f90;fill-opacity:1;fill-rule:nonzero;stroke:none"
         id="path108"
         inkscape:connector-curvature="0" /><path
         d="m 124.034,8.94062 c 0,-2.28437 -1.851,-4.13476 -4.137,-4.13476 -2.283,0 -4.132,1.85039 -4.132,4.13476 0,2.28318 1.849,4.13478 4.132,4.13478 2.286,0 4.137,-1.8516 4.137,-4.13478"
         style="fill:#918f90;fill-opacity:1;fill-rule:nonzero;stroke:none"
         id="path110"
         inkscape:connector-curvature="0" /><path
         d="m 136.968,11.0598 c 0,-4.41996 -1.664,-6.25394 -5.151,-6.25394 l -2.271,0 0,2.48047 1.514,0 c 2.121,0 3.179,1.02226 3.179,3.82577 l 0,11.3789 c 0,4.1528 1.262,5.8238 3.229,6.4156 l 0,0.1102 c -1.967,0.5918 -3.229,2.2629 -3.229,6.4144 l 0,11.3786 c 0,2.8019 -1.058,3.8281 -3.179,3.8281 l -1.514,0 0,2.4797 2.271,0 c 3.487,0 5.151,-1.8332 5.151,-6.2547 l 0,-9.707 c 0,-5.445 0.705,-6.9543 3.029,-6.9543 l 0,-2.4809 c -2.324,0 -3.029,-1.5078 -3.029,-6.9539 l 0,-9.707"
         style="fill:#918f90;fill-opacity:1;fill-rule:nonzero;stroke:none"
         id="path112"
         inkscape:connector-curvature="0" /></g></g></svg>