<?xml version="1.0" encoding="UTF-8" standalone="no"?>
<!-- Created with Inkscape (http://www.inkscape.org/) -->

<svg
   xmlns:dc="http://purl.org/dc/elements/1.1/"
   xmlns:cc="http://creativecommons.org/ns#"
   xmlns:rdf="http://www.w3.org/1999/02/22-rdf-syntax-ns#"
   xmlns:svg="http://www.w3.org/2000/svg"
   xmlns="http://www.w3.org/2000/svg"
   xmlns:sodipodi="http://sodipodi.sourceforge.net/DTD/sodipodi-0.dtd"
   xmlns:inkscape="http://www.inkscape.org/namespaces/inkscape"
   width="96"
   height="16"
   id="svg2"
   version="1.1"
   inkscape:version="0.48.3.1 r9886"
   inkscape:export-filename="arrows_tmp.png"
   inkscape:export-xdpi="90"
   inkscape:export-ydpi="90"
   sodipodi:docname="arrows.svg">
  <defs
     id="defs4">
    <inkscape:perspective
       sodipodi:type="inkscape:persp3d"
       inkscape:vp_x="0 : 526.18109 : 1"
       inkscape:vp_y="0 : 1000 : 0"
       inkscape:vp_z="744.09448 : 526.18109 : 1"
       inkscape:persp3d-origin="372.04724 : 350.78739 : 1"
       id="perspective10" />
  </defs>
  <sodipodi:namedview
     id="base"
     pagecolor="#ffffff"
     bordercolor="#666666"
     borderopacity="1.0"
     inkscape:pageopacity="0.0"
     inkscape:pageshadow="2"
     inkscape:zoom="9.9166667"
     inkscape:cx="48"
     inkscape:cy="6.1254288"
     inkscape:document-units="px"
     inkscape:current-layer="layer1"
     showgrid="false"
     inkscape:window-width="1432"
     inkscape:window-height="816"
     inkscape:window-x="0"
     inkscape:window-y="0"
     inkscape:window-maximized="1" />
  <metadata
     id="metadata7">
    <rdf:RDF>
      <cc:Work
         rdf:about="">
        <dc:format>image/svg+xml</dc:format>
        <dc:type
           rdf:resource="http://purl.org/dc/dcmitype/StillImage" />
        <dc:title></dc:title>
      </cc:Work>
    </rdf:RDF>
  </metadata>
  <g
     inkscape:label="Ebene 1"
     inkscape:groupmode="layer"
     id="layer1"
     transform="translate(497.85759,-494.56037)">
    <path
       sodipodi:type="star"
       style="fill:#4d4d4d;fill-opacity:1;stroke:none"
       id="path3604"
       sodipodi:sides="3"
       sodipodi:cx="-255"
       sodipodi:cy="486.64789"
       sodipodi:r1="103.44833"
       sodipodi:r2="223.88499"
       sodipodi:arg1="-1.5707963"
       sodipodi:arg2="-0.52359875"
       inkscape:flatsided="true"
       inkscape:rounded="1.06"
       inkscape:randomized="0"
       d="m -255,383.19955 c 189.928439,1e-5 184.553106,-9.31034 89.58888,155.17251 -94.96422,164.48285 -84.21355,164.48285 -179.17777,-1e-5 C -439.5531,373.8892 -444.92843,383.19955 -255,383.19955 z"
       transform="matrix(0.05194553,0,0,-0.05157419,-476.61147,529.50369)" />
    <path
       sodipodi:type="star"
       style="fill:#9d0000;fill-opacity:1;stroke:none"
       id="path3604-4"
       sodipodi:sides="3"
       sodipodi:cx="-255"
       sodipodi:cy="486.64789"
       sodipodi:r1="103.44833"
       sodipodi:r2="223.88499"
       sodipodi:arg1="-1.5707963"
       sodipodi:arg2="-0.52359875"
       inkscape:flatsided="true"
       inkscape:rounded="1.06"
       inkscape:randomized="0"
       d="m -255,383.19955 c 189.928439,1e-5 184.553106,-9.31034 89.58888,155.17251 -94.96422,164.48285 -84.21355,164.48285 -179.17777,-1e-5 C -439.5531,373.8892 -444.92843,383.19955 -255,383.19955 z"
       transform="matrix(0.05194553,0,0,-0.05157419,-460.61147,529.50369)" />
    <path
       sodipodi:type="star"
       style="fill:#009800;fill-opacity:1;stroke:none"
       id="path3604-7"
       sodipodi:sides="3"
       sodipodi:cx="-255"
       sodipodi:cy="486.64789"
       sodipodi:r1="103.44833"
       sodipodi:r2="223.88499"
       sodipodi:arg1="-1.5707963"
       sodipodi:arg2="-0.52359875"
       inkscape:flatsided="true"
       inkscape:rounded="1.06"
       inkscape:randomized="0"
       d="m -255,383.19955 c 189.928439,1e-5 184.553106,-9.31034 89.58888,155.17251 -94.96422,164.48285 -84.21355,164.48285 -179.17777,-1e-5 C -439.5531,373.8892 -444.92843,383.19955 -255,383.19955 z"
       transform="matrix(0.05194553,0,0,-0.05157419,-444.61147,529.50369)" />
    <path
       sodipodi:type="star"
       style="fill:#4d4d4d;fill-opacity:1;stroke:none"
       id="path3604-8"
       sodipodi:sides="3"
       sodipodi:cx="-255"
       sodipodi:cy="486.64789"
       sodipodi:r1="103.44833"
       sodipodi:r2="223.88499"
       sodipodi:arg1="-1.5707963"
       sodipodi:arg2="-0.52359875"
       inkscape:flatsided="true"
       inkscape:rounded="1.06"
       inkscape:randomized="0"
       d="m -255,383.19955 c 189.928439,1e-5 184.553106,-9.31034 89.58888,155.17251 -94.96422,164.48285 -84.21355,164.48285 -179.17777,-1e-5 C -439.5531,373.8892 -444.92843,383.19955 -255,383.19955 z"
       transform="matrix(0.05194553,0,0,0.05157419,-428.61147,475.61705)" />
    <path
       sodipodi:type="star"
       style="fill:#9d0000;fill-opacity:1;stroke:none"
       id="path3604-4-2"
       sodipodi:sides="3"
       sodipodi:cx="-255"
       sodipodi:cy="486.64789"
       sodipodi:r1="103.44833"
       sodipodi:r2="223.88499"
       sodipodi:arg1="-1.5707963"
       sodipodi:arg2="-0.52359875"
       inkscape:flatsided="true"
       inkscape:rounded="1.06"
       inkscape:randomized="0"
       d="m -255,383.19955 c 189.928439,1e-5 184.553106,-9.31034 89.58888,155.17251 -94.96422,164.48285 -84.21355,164.48285 -179.17777,-1e-5 C -439.5531,373.8892 -444.92843,383.19955 -255,383.19955 z"
       transform="matrix(0.05194553,0,0,0.05157419,-412.61147,475.61705)" />
    <path
       sodipodi:type="star"
       style="fill:#009800;fill-opacity:1;stroke:none"
       id="path3604-7-5"
       sodipodi:sides="3"
       sodipodi:cx="-255"
       sodipodi:cy="486.64789"
       sodipodi:r1="103.44833"
       sodipodi:r2="223.88499"
       sodipodi:arg1="-1.5707963"
       sodipodi:arg2="-0.52359875"
       inkscape:flatsided="true"
       inkscape:rounded="1.06"
       inkscape:randomized="0"
       d="m -255,383.19955 c 189.928439,1e-5 184.553106,-9.31034 89.58888,155.17251 -94.96422,164.48285 -84.21355,164.48285 -179.17777,-1e-5 C -439.5531,373.8892 -444.92843,383.19955 -255,383.19955 z"
       transform="matrix(0.05194553,0,0,0.05157419,-396.61147,475.61705)" />
  </g>
</svg>
